<?xml version="1.0" standalone="no"?>
<!DOCTYPE svg PUBLIC "-//W3C//DTD SVG 20010904//EN"
 "http://www.w3.org/TR/2001/REC-SVG-20010904/DTD/svg10.dtd">
<svg version="1.0" xmlns="http://www.w3.org/2000/svg"
 width="682.000000pt" height="682.000000pt" viewBox="0 0 682.000000 682.000000"
 preserveAspectRatio="xMidYMid meet">
<metadata>
Created by potrace 1.14, written by Peter Selinger 2001-2017
</metadata>
<g transform="translate(0.000000,682.000000) scale(0.100000,-0.100000)"
fill="#000000" stroke="none">
<path d="M0 3410 l0 -3380 3410 0 3410 0 0 3380 0 3380 -3410 0 -3410 0 0
-3380z m1318 868 c16 -16 16 -110 0 -126 -7 -7 -40 -12 -80 -12 l-68 0 0 -660
0 -660 68 0 c40 0 73 -5 80 -12 16 -16 16 -110 0 -126 -17 -17 -289 -17 -306
0 -9 9 -12 201 -12 803 0 436 3 795 7 798 12 13 298 8 311 -5z m4380 0 c17
-17 17 -1579 0 -1596 -17 -17 -289 -17 -306 0 -7 7 -12 35 -12 63 0 28 5 56
12 63 7 7 40 12 80 12 l68 0 0 660 0 660 -68 0 c-40 0 -73 5 -80 12 -7 7 -12
35 -12 63 0 28 5 56 12 63 8 8 57 12 153 12 96 0 145 -4 153 -12z m-1316 -248
c104 -32 208 -110 286 -214 l22 -29 0 122 0 122 68 -3 67 -3 3 -612 2 -613
-70 0 -70 0 0 105 0 105 -42 -47 c-66 -71 -149 -128 -235 -159 -71 -26 -90
-29 -208 -29 -147 0 -195 10 -300 63 -147 75 -269 232 -311 402 -25 101 -16
302 19 400 68 190 241 350 429 396 86 20 264 18 340 -6z m-1768 -52 c9 -13 16
-43 16 -69 0 -76 -15 -83 -189 -91 -163 -7 -240 -25 -277 -65 -20 -22 -24 -36
-24 -95 0 -59 3 -72 24 -93 42 -42 83 -47 436 -55 357 -8 394 -13 503 -65 59
-28 119 -81 145 -128 14 -26 17 -58 17 -172 0 -130 -2 -143 -24 -182 -45 -78
-139 -122 -303 -143 -46 -5 -282 -10 -530 -10 -435 0 -449 1 -468 20 -25 25
-27 105 -5 137 15 21 17 21 493 25 l477 3 60 25 c70 29 85 52 85 132 0 77 -12
104 -58 127 -61 31 -139 40 -457 51 -165 6 -324 15 -354 20 -114 21 -205 82
-242 165 -24 53 -26 220 -3 287 31 91 144 168 274 186 36 5 138 10 227 11 157
1 162 0 177 -21z"/>
<path d="M4091 3904 c-113 -30 -233 -122 -293 -225 -98 -167 -98 -399 1 -547
107 -161 252 -239 430 -230 75 3 98 9 165 41 231 109 351 401 263 637 -92 248
-334 387 -566 324z"/>
</g>
</svg>
