<?xml version="1.0" standalone="no"?>
<!DOCTYPE svg PUBLIC "-//W3C//DTD SVG 20010904//EN"
 "http://www.w3.org/TR/2001/REC-SVG-20010904/DTD/svg10.dtd">
<svg version="1.0" xmlns="http://www.w3.org/2000/svg"
 width="1187.000000pt" height="1187.000000pt" viewBox="0 0 1187.000000 1187.000000"
 preserveAspectRatio="xMidYMid meet">
<metadata>
Created by potrace 1.14, written by Peter Selinger 2001-2017
</metadata>
<g transform="translate(0.000000,1187.000000) scale(0.100000,-0.100000)"
fill="#000000" stroke="none">
<path d="M659 8916 c-2 -2 -17 -6 -34 -9 -167 -28 -318 -182 -355 -361 -7 -35
-9 -865 -8 -2646 l3 -2595 42 -86 c61 -126 175 -223 298 -256 17 -4 2404 -9
5305 -11 4017 -2 5288 0 5330 9 173 37 314 174 354 345 15 63 17 292 14 2654
-3 1955 -6 2595 -15 2626 -7 22 -25 62 -40 89 -30 54 -131 165 -150 165 -6 0
-13 4 -15 8 -6 14 -98 53 -150 62 -49 10 -10569 15 -10579 6z"/>
</g>
</svg>
